<svg width="26" height="16" viewBox="0 0 26 16" fill="none" xmlns="http://www.w3.org/2000/svg">
<path fill-rule="evenodd" clip-rule="evenodd" d="M4.49967 9.41642H21.4997C22.2788 9.41642 22.9163 8.77892 22.9163 7.99976C22.9163 7.22059 22.2788 6.58309 21.4997 6.58309H4.49967C3.72051 6.58309 3.08301 7.22059 3.08301 7.99976C3.08301 8.77892 3.72051 9.41642 4.49967 9.41642ZM1.66667 15.0831H18.6667C19.4458 15.0831 20.0833 14.4456 20.0833 13.6664C20.0833 12.8873 19.4458 12.2498 18.6667 12.2498H1.66667C0.8875 12.2498 0.25 12.8873 0.25 13.6664C0.25 14.4456 0.8875 15.0831 1.66667 15.0831ZM5.91667 2.33341C5.91667 3.11258 6.55417 3.75008 7.33333 3.75008H24.3333C25.1125 3.75008 25.75 3.11258 25.75 2.33341C25.75 1.55425 25.1125 0.916748 24.3333 0.916748H7.33333C6.55417 0.916748 5.91667 1.55425 5.91667 2.33341Z" fill="#ED0677"/>
</svg>
